<?xml version="1.0" encoding="UTF-8" standalone="no"?>
<!-- Created with Inkscape (http://www.inkscape.org/) -->

<svg
   width="80.246422mm"
   height="44.124165mm"
   viewBox="0 0 80.246422 44.124165"
   version="1.1"
   id="svg8626"
   inkscape:version="1.4.3 (fcd0343856, 2026-01-01)"
   sodipodi:docname="AQO_logo2.svg"
   xmlns:inkscape="http://www.inkscape.org/namespaces/inkscape"
   xmlns:sodipodi="http://sodipodi.sourceforge.net/DTD/sodipodi-0.dtd"
   xmlns="http://www.w3.org/2000/svg"
   xmlns:svg="http://www.w3.org/2000/svg"
   xmlns:rdf="http://www.w3.org/1999/02/22-rdf-syntax-ns#"
   xmlns:cc="http://creativecommons.org/ns#"
   xmlns:dc="http://purl.org/dc/elements/1.1/">
  <defs
     id="defs8620">
    <linearGradient
       id="linearGradient9966"
       inkscape:swatch="solid">
      <stop
         style="stop-color:#00ab37;stop-opacity:1;"
         offset="0"
         id="stop9964" />
    </linearGradient>
  </defs>
  <sodipodi:namedview
     id="base"
     pagecolor="#ffffff"
     bordercolor="#666666"
     borderopacity="1.0"
     inkscape:pageopacity="0.0"
     inkscape:pageshadow="2"
     inkscape:zoom="2.8284271"
     inkscape:cx="196.92924"
     inkscape:cy="71.948116"
     inkscape:document-units="mm"
     inkscape:current-layer="text9187"
     showgrid="false"
     showguides="false"
     inkscape:guide-bbox="true"
     inkscape:window-width="1854"
     inkscape:window-height="1011"
     inkscape:window-x="0"
     inkscape:window-y="0"
     inkscape:window-maximized="1"
     fit-margin-top="0"
     fit-margin-left="0"
     fit-margin-right="0"
     fit-margin-bottom="0"
     inkscape:lockguides="true"
     inkscape:showpageshadow="2"
     inkscape:pagecheckerboard="0"
     inkscape:deskcolor="#d1d1d1">
    <sodipodi:guide
       position="55.401996,22.028419"
       orientation="1,0"
       id="guide9192"
       inkscape:locked="true" />
    <sodipodi:guide
       position="53.529389,29.394039"
       orientation="1,0"
       id="guide9194"
       inkscape:locked="true" />
    <sodipodi:guide
       position="52.027067,28.950099"
       orientation="1,0"
       id="guide9196"
       inkscape:locked="true" />
    <sodipodi:guide
       position="57.27503,24.098769"
       orientation="1,0"
       id="guide9198"
       inkscape:locked="true"
       inkscape:label=""
       inkscape:color="rgb(0,0,255)" />
    <sodipodi:guide
       position="58.77703,24.438009"
       orientation="1,0"
       id="guide9200"
       inkscape:locked="true"
       inkscape:label=""
       inkscape:color="rgb(0,0,255)" />
    <sodipodi:guide
       position="51.558275,7.5269187"
       orientation="0,1"
       id="guide839"
       inkscape:locked="true"
       inkscape:label=""
       inkscape:color="rgb(0,0,255)" />
    <sodipodi:guide
       position="53.529387,24.400001"
       orientation="0,1"
       id="guide843"
       inkscape:locked="true"
       inkscape:label=""
       inkscape:color="rgb(0,0,255)" />
    <sodipodi:guide
       position="53.529389,31.600001"
       orientation="0,1"
       id="guide845"
       inkscape:locked="true"
       inkscape:label=""
       inkscape:color="rgb(0,0,255)" />
    <sodipodi:guide
       position="54.208944,19.600001"
       orientation="0,1"
       id="guide865"
       inkscape:locked="true"
       inkscape:label=""
       inkscape:color="rgb(0,0,255)" />
    <sodipodi:guide
       position="55.719598,22.000001"
       orientation="0,1"
       id="guide867"
       inkscape:locked="true"
       inkscape:label=""
       inkscape:color="rgb(0,0,255)" />
    <sodipodi:guide
       position="48.643056,26.753681"
       orientation="0,1"
       id="guide869"
       inkscape:locked="true"
       inkscape:label=""
       inkscape:color="rgb(0,0,255)" />
    <sodipodi:guide
       position="55.678258,29.200001"
       orientation="0,1"
       id="guide871"
       inkscape:locked="true"
       inkscape:label=""
       inkscape:color="rgb(0,0,255)" />
    <sodipodi:guide
       position="54.51881,20.800001"
       orientation="0,1"
       id="guide873"
       inkscape:locked="true"
       inkscape:label=""
       inkscape:color="rgb(0,0,255)" />
    <sodipodi:guide
       position="54.612354,23.200001"
       orientation="0,1"
       id="guide875"
       inkscape:locked="true"
       inkscape:label=""
       inkscape:color="rgb(0,0,255)" />
    <sodipodi:guide
       position="53.033794,25.600001"
       orientation="0,1"
       id="guide877"
       inkscape:locked="true"
       inkscape:label=""
       inkscape:color="rgb(0,0,255)" />
    <sodipodi:guide
       position="56.645641,28.000001"
       orientation="0,1"
       id="guide879"
       inkscape:locked="true"
       inkscape:label=""
       inkscape:color="rgb(0,0,255)" />
    <sodipodi:guide
       position="53.52939,30.400001"
       orientation="0,1"
       id="guide881"
       inkscape:locked="true"
       inkscape:label=""
       inkscape:color="rgb(0,0,255)" />
  </sodipodi:namedview>
  <metadata
     id="metadata8623">
    <rdf:RDF>
      <cc:Work
         rdf:about="">
        <dc:format>image/svg+xml</dc:format>
        <dc:type
           rdf:resource="http://purl.org/dc/dcmitype/StillImage" />
        <dc:title />
      </cc:Work>
    </rdf:RDF>
  </metadata>
  <g
     inkscape:label="Laag 1"
     inkscape:groupmode="layer"
     id="layer1"
     transform="translate(-41.651972,-60.402753)">
    <g
       aria-label="A"
       style="font-style:normal;font-variant:normal;font-weight:normal;font-stretch:normal;font-size:4.23333311px;line-height:2.25;font-family:Bahnschrift;-inkscape-font-specification:Bahnschrift;font-variant-ligatures:normal;font-variant-caps:normal;font-variant-numeric:normal;font-feature-settings:normal;text-align:start;letter-spacing:0px;word-spacing:0px;writing-mode:lr-tb;text-anchor:start;fill:#000000;fill-opacity:1;stroke:none;stroke-width:0.26458332"
       id="text9173">
      <g
         id="g10021">
        <g
           id="text9187"
           style="font-style:normal;font-variant:normal;font-weight:normal;font-stretch:normal;font-size:8.29768px;line-height:2.25;font-family:Bahnschrift;-inkscape-font-specification:Bahnschrift;font-variant-ligatures:normal;font-variant-caps:normal;font-variant-numeric:normal;font-feature-settings:normal;text-align:start;letter-spacing:0px;word-spacing:0px;writing-mode:lr-tb;text-anchor:start;fill:#000000;fill-opacity:1;stroke:none;stroke-width:0.0861049"
           aria-label="O"
           transform="translate(0,-0.52916667)">
          <path
             d="m 109.47626,60.924685 c -2.46337,0 -4.6349,0.543012 -6.51485,1.628841 -1.87994,1.069623 -3.33875,2.592565 -4.375962,4.569747 -0.611009,1.173528 -0.866167,4.259804 -1.21698,5.647717 0.02252,-1.336543 -0.635923,-4.200533 -1.369942,-5.588289 -1.029527,-1.993688 -2.492209,-3.529951 -4.387846,-4.608504 -1.895638,-1.094894 -4.085686,-1.642277 -6.569625,-1.642277 -2.483939,0 -4.67347,0.547383 -6.569108,1.642277 -1.895638,1.078553 -3.366265,2.614816 -4.412134,4.608504 -0.374856,0.719961 -0.681471,1.482229 -0.919841,2.286682 l 0.01602,-8.535396 H 68.839977 L 42.181139,97.000002 h 5.457031 l 5.650301,-7.912695 h 14.555701 l -0.213424,7.912695 h 5.457031 l 0.01602,-8.34316 c 0.243218,0.853951 0.562007,1.662694 0.956014,2.425692 1.045869,1.977347 2.516496,3.513095 4.412134,4.607988 1.895638,1.078553 4.085169,1.617989 6.569108,1.617989 2.483939,0 4.673987,-0.539436 6.569625,-1.617989 0.446469,-0.257875 1.336601,-0.841971 2.192631,-1.667599 l 4.450374,3.506246 2.598295,-3.333647 -4.79351,-3.767728 c 0.816445,-2.206476 1.079353,-4.412172 1.027328,-4.881356 0.703316,2.038316 0.553488,3.446495 1.49965,5.278747 1.037212,1.960975 2.496022,3.484435 4.375962,4.570264 1.87994,1.069621 4.05148,1.604551 6.51485,1.604553 2.46336,-2e-6 4.63491,-0.534932 6.51484,-1.604553 1.87995,-1.085829 3.33067,-2.609289 4.35168,-4.570264 1.03721,-1.977182 1.55546,-4.26237 1.55546,-6.855395 V 73.954381 c 0,-2.593025 -0.51825,-4.870133 -1.55546,-6.831108 -1.02101,-1.977182 -2.47173,-3.500124 -4.35168,-4.569747 -1.87994,-1.085829 -4.05147,-1.628841 -6.51484,-1.628841 z m 0,4.886007 c 1.45857,0 2.73907,0.332375 3.84111,0.996838 1.11824,0.648257 1.97694,1.580214 2.57658,2.795695 0.61584,1.199274 0.92398,2.592912 0.92398,4.18114 v 10.355957 c 0,1.588228 -0.30814,2.989947 -0.92398,4.205428 -0.59964,1.199274 -1.45834,2.131232 -2.57658,2.795695 -1.10204,0.648256 -2.38254,0.972551 -3.84111,0.972551 -1.45858,0 -2.74716,-0.324295 -3.8654,-0.972551 -1.10203,-0.664463 -1.96074,-1.596421 -2.57659,-2.795695 -0.59963,-1.215481 -0.89968,-2.6172 -0.89968,-4.205428 V 73.784365 c 0,-1.588228 0.30005,-2.981866 0.89968,-4.18114 0.61585,-1.215481 1.47456,-2.147438 2.57659,-2.795695 1.11824,-0.664463 2.40682,-0.996838 3.8654,-0.996838 z m -24.435205,0.04806 c 1.470753,0 2.761912,0.335097 3.873148,1.005106 1.127578,0.653669 1.993648,1.593322 2.598291,2.81895 0.620985,1.209286 0.931727,2.614793 0.931727,4.21628 v 10.442256 c 0,1.057438 -0.135443,2.032866 -0.406177,2.926437 l -4.472079,-3.514514 -2.598291,3.308842 4.773869,3.76101 c -0.258025,0.210886 -0.533898,0.40338 -0.82734,0.577743 -1.111236,0.653667 -2.402395,0.980819 -3.873148,0.980819 -1.470753,0 -2.76986,-0.327152 -3.897437,-0.980819 -1.111236,-0.670007 -1.977306,-1.609662 -2.598291,-2.818949 -0.604643,-1.225627 -0.906921,-2.639079 -0.906921,-4.240569 V 73.899087 c 0,-1.601487 0.302278,-3.006994 0.906921,-4.21628 0.620985,-1.225628 1.487055,-2.165281 2.598291,-2.81895 1.127577,-0.670009 2.426684,-1.005106 3.897437,-1.005106 z M 68.415196,67.904104 67.97388,84.275198 H 56.724954 Z m 28.048417,5.729366 c -0.552622,0.202385 -1.282218,0.557628 -1.282092,1.022677 1.62e-4,0.596768 1.210354,1.013485 1.682585,1.153418 -1.019276,-0.229074 -3.211976,-0.542675 -3.177067,-1.157036 0.04049,-0.712491 1.503412,-0.785964 2.776574,-1.019059 z m 0.65164,2.238106 c 0.468738,0.07669 3.306907,0.566813 3.316077,1.183907 0.008,0.566553 -2.494202,1.041771 -3.191537,1.163237 0.593389,-0.142927 1.715325,-0.649154 1.699122,-1.161686 -0.01632,-0.516196 -1.312686,-1.039474 -1.823662,-1.185458 z m -0.08527,2.385384 c -0.2454,0.06483 -1.848466,0.514269 -1.848466,1.198894 0,0.635519 1.375949,1.063347 1.768884,1.172538 -0.785014,-0.147786 -3.260361,-0.739022 -3.270084,-1.169955 -0.01027,-0.455189 2.64838,-1.104291 3.349666,-1.201477 z m 0.139527,2.415874 c 4.350616,0.635491 4.345916,1.724448 -0.01344,2.359029 0.589853,-0.160764 1.812128,-0.753111 1.780253,-1.16117 -0.03388,-0.433705 -1.217694,-1.050431 -1.766817,-1.197859 z m -0.184485,2.398303 c -0.337536,0.122404 -1.800919,0.68223 -1.807642,1.184424 -0.0078,0.58561 1.768464,1.105886 1.873787,1.198893 -0.919314,-0.306786 -3.274911,-0.872587 -3.354834,-1.190625 -0.116361,-0.463041 2.567605,-1.042044 3.288689,-1.192692 z"
             style="font-size:49.7861px"
             id="path1" />
        </g>
        <g
           aria-label="ADAPTIVE QUANTUM OPTICS"
           style="font-style:normal;font-variant:normal;font-weight:normal;font-stretch:normal;font-size:1.65451px;line-height:2.25;font-family:Bahnschrift;-inkscape-font-specification:Bahnschrift;font-variant-ligatures:normal;font-variant-caps:normal;font-variant-numeric:normal;font-feature-settings:normal;text-align:start;letter-spacing:0px;word-spacing:0px;writing-mode:lr-tb;text-anchor:start;fill:#000000;fill-opacity:1;stroke:none;stroke-width:0.0171688"
           id="text9204">
          <path
             d="m 43.451197,99.750806 h 0.562276 l 1.732068,4.698554 h -0.710924 l -1.302282,-3.79051 -1.302283,3.79051 h -0.710923 z m -0.933895,3.040814 h 2.472075 v 0.6269 h -2.472075 z"
             style="font-size:6.61805px;letter-spacing:-0.270926px;fill:#000000;fill-opacity:1;stroke-width:0.0171688"
             id="path887" />
          <path
             d="m 46.637944,103.82246 h 1.063153 q 0.520267,0 0.804636,-0.26821 0.287601,-0.27145 0.287601,-0.76263 v -1.38307 q 0,-0.49118 -0.287601,-0.7594 -0.284369,-0.27144 -0.804636,-0.27144 h -1.063153 v -0.626904 h 1.043764 q 0.565508,0 0.96621,0.19712 0.400702,0.197124 0.610748,0.575204 0.210045,0.37808 0.210045,0.91127 v 1.33137 q 0,0.53319 -0.210045,0.91127 -0.210046,0.37808 -0.61398,0.5752 -0.400702,0.19712 -0.966209,0.19712 h -1.040533 z m -0.445943,-4.071654 h 0.65922 v 4.698554 h -0.65922 z"
             style="font-size:6.61805px;letter-spacing:-0.270926px;fill:#000000;fill-opacity:1;stroke-width:0.0171688"
             id="path889" />
          <path
             d="m 51.349944,99.750806 h 0.562275 l 1.732068,4.698554 h -0.710923 l -1.302282,-3.79051 -1.302283,3.79051 h -0.710923 z m -0.933895,3.040814 h 2.472074 v 0.6269 h -2.472074 z"
             style="font-size:6.61805px;letter-spacing:-0.270926px;fill:#000000;fill-opacity:1;stroke-width:0.0171688"
             id="path891" />
          <path
             d="m 54.430052,101.99991 h 1.502633 q 0.213277,0 0.374851,-0.10018 0.161573,-0.10017 0.248823,-0.28437 0.09048,-0.18419 0.09048,-0.42332 v 0 q 0,-0.24236 -0.09048,-0.42655 -0.08725,-0.1842 -0.248823,-0.28437 -0.161574,-0.10341 -0.374851,-0.10341 h -1.502633 v -0.626904 h 1.480013 q 0.420091,0 0.740007,0.180963 0.319915,0.177731 0.494415,0.504111 0.17773,0.32638 0.17773,0.75616 v 0 q 0,0.42979 -0.17773,0.75617 -0.1745,0.32314 -0.494415,0.50087 -0.319916,0.17773 -0.740007,0.17773 h -1.480013 z m -0.339305,-2.249104 h 0.65922 v 4.698554 h -0.65922 z"
             style="font-size:6.61805px;letter-spacing:-0.270926px;fill:#000000;fill-opacity:1;stroke-width:0.0171688"
             id="path893" />
          <path
             d="m 59.012793,100.13535 h 0.65922 v 4.31401 h -0.65922 z m -1.328134,-0.384544 h 3.315488 v 0.626904 h -3.315488 z"
             style="font-size:6.61805px;letter-spacing:-0.270926px;fill:#000000;fill-opacity:1;stroke-width:0.0171688"
             id="path895" />
          <path
             d="m 62.041198,104.44936 h -0.659219 v -4.698554 h 0.659219 z"
             style="font-size:6.61805px;letter-spacing:-0.270926px;fill:#000000;fill-opacity:1;stroke-width:0.0171688"
             id="path897" />
          <path
             d="m 62.57814,99.750806 h 0.717386 l 1.127783,3.683874 1.127783,-3.683874 h 0.717386 l -1.531716,4.698554 h -0.626906 z"
             style="font-size:6.61805px;letter-spacing:-0.270926px;fill:#000000;fill-opacity:1;stroke-width:0.0171688"
             id="path899" />
          <path
             d="m 66.721401,99.750806 h 0.65922 v 4.698554 h -0.65922 z m 0.319915,4.071654 h 2.698278 v 0.6269 h -2.698278 z m 0,-2.01967 h 2.342816 v 0.6269 h -2.342816 z m 0,-2.051984 h 2.698278 v 0.626904 h -2.698278 z"
             style="font-size:6.61805px;letter-spacing:-0.270926px;fill:#000000;fill-opacity:1;stroke-width:0.0171688"
             id="path901" />
          <path
             d="m 73.46328,103.14708 0.342536,-0.43625 1.751457,1.37661 -0.342536,0.43948 z m 0.0097,1.35076 q -0.491184,0 -0.866034,-0.21328 -0.374851,-0.21651 -0.581665,-0.60752 -0.203582,-0.39424 -0.203582,-0.91127 v -1.33137 q 0,-0.51703 0.203582,-0.90804 0.206814,-0.39424 0.581665,-0.607517 0.37485,-0.216509 0.866034,-0.216509 0.491183,0 0.866034,0.216509 0.37485,0.213277 0.578433,0.607517 0.206814,0.39101 0.206814,0.90804 v 1.33137 q 0,0.51703 -0.206814,0.91127 -0.203583,0.39101 -0.578433,0.60752 -0.374851,0.21328 -0.866034,0.21328 z m 0,-0.64953 q 0.290832,0 0.510572,-0.12926 0.222972,-0.13249 0.342536,-0.37162 0.122796,-0.24236 0.122796,-0.55904 v -1.37661 q 0,-0.31668 -0.122796,-0.55581 -0.119564,-0.24236 -0.342536,-0.37162 -0.21974,-0.13249 -0.510572,-0.13249 -0.290832,0 -0.513804,0.13249 -0.21974,0.12926 -0.342536,0.37162 -0.119564,0.23913 -0.119564,0.55581 v 1.37661 q 0,0.31668 0.119564,0.55904 0.122796,0.23913 0.342536,0.37162 0.222972,0.12926 0.513804,0.12926 z"
             style="font-size:6.61805px;letter-spacing:-0.270926px;fill:#000000;fill-opacity:1;stroke-width:0.0171688"
             id="path903" />
          <path
             d="m 77.587154,104.49784 q -0.520266,0 -0.891885,-0.20359 -0.368388,-0.20681 -0.562276,-0.59782 -0.193888,-0.39424 -0.193888,-0.94682 v -2.998804 h 0.65922 v 3.021424 q 0,0.5138 0.258517,0.79494 0.258518,0.28114 0.730312,0.28114 0.475027,0 0.733544,-0.28114 0.261749,-0.28114 0.261749,-0.79494 v -3.021424 h 0.65922 v 2.998804 q 0,0.55258 -0.193888,0.94682 -0.193888,0.39101 -0.565507,0.59782 -0.371619,0.20359 -0.895118,0.20359 z"
             style="font-size:6.61805px;letter-spacing:-0.270926px;fill:#000000;fill-opacity:1;stroke-width:0.0171688"
             id="path905" />
          <path
             d="m 81.161677,99.750806 h 0.562276 l 1.732068,4.698554 h -0.710924 l -1.302282,-3.79051 -1.302283,3.79051 h -0.710923 z m -0.933895,3.040814 h 2.472075 v 0.6269 h -2.472075 z"
             style="font-size:6.61805px;letter-spacing:-0.270926px;fill:#000000;fill-opacity:1;stroke-width:0.0171688"
             id="path907" />
          <path
             d="m 83.902481,99.750806 h 0.597822 l 2.297575,3.632174 -0.07756,0.084 v -3.716194 h 0.652757 v 4.695324 h -0.604284 l -2.291113,-3.57724 0.07756,-0.084 v 3.66125 h -0.652757 z"
             style="font-size:6.61805px;letter-spacing:-0.270926px;fill:#000000;fill-opacity:1;stroke-width:0.0171688"
             id="path909" />
          <path
             d="m 89.212304,100.13535 h 0.65922 v 4.31401 h -0.65922 z M 87.88417,99.750806 h 3.315488 v 0.626904 H 87.88417 Z"
             style="font-size:6.61805px;letter-spacing:-0.270926px;fill:#000000;fill-opacity:1;stroke-width:0.0171688"
             id="path911" />
          <path
             d="m 93.035648,104.49784 q -0.520266,0 -0.891885,-0.20359 -0.368388,-0.20681 -0.562276,-0.59782 -0.193888,-0.39424 -0.193888,-0.94682 v -2.998804 h 0.65922 v 3.021424 q 0,0.5138 0.258517,0.79494 0.258518,0.28114 0.730312,0.28114 0.475027,0 0.733544,-0.28114 0.261749,-0.28114 0.261749,-0.79494 v -3.021424 h 0.65922 v 2.998804 q 0,0.55258 -0.193888,0.94682 -0.193888,0.39101 -0.565507,0.59782 -0.371619,0.20359 -0.895118,0.20359 z"
             style="font-size:6.61805px;letter-spacing:-0.270926px;fill:#000000;fill-opacity:1;stroke-width:0.0171688"
             id="path913" />
          <path
             d="m 98.836656,99.750806 h 0.617211 v 4.698554 h -0.643063 v -3.51907 l 0.03231,0.20682 -1.156866,2.6595 h -0.458869 l -1.156866,-2.59487 0.03231,-0.27145 v 3.51907 H 95.45977 v -4.698554 h 0.617211 l 1.379837,3.102214 z"
             style="font-size:6.61805px;letter-spacing:-0.270926px;fill:#000000;fill-opacity:1;stroke-width:0.0171688"
             id="path915" />
          <path
             d="m 103.41345,104.49784 q -0.49119,0 -0.86604,-0.21328 -0.37485,-0.21651 -0.58166,-0.60752 -0.20358,-0.39424 -0.20358,-0.91127 v -1.33137 q 0,-0.51703 0.20358,-0.90804 0.20681,-0.39424 0.58166,-0.607517 0.37485,-0.216509 0.86604,-0.216509 0.49118,0 0.86603,0.216509 0.37485,0.213277 0.57844,0.607517 0.20681,0.39101 0.20681,0.90804 v 1.33137 q 0,0.51703 -0.20681,0.91127 -0.20359,0.39101 -0.57844,0.60752 -0.37485,0.21328 -0.86603,0.21328 z m 0,-0.64953 q 0.29083,0 0.51057,-0.12926 0.22297,-0.13249 0.34254,-0.37162 0.12279,-0.24236 0.12279,-0.55904 v -1.37661 q 0,-0.31668 -0.12279,-0.55581 -0.11957,-0.24236 -0.34254,-0.37162 -0.21974,-0.13249 -0.51057,-0.13249 -0.29083,0 -0.51381,0.13249 -0.21974,0.12926 -0.34253,0.37162 -0.11957,0.23913 -0.11957,0.55581 v 1.37661 q 0,0.31668 0.11957,0.55904 0.12279,0.23913 0.34253,0.37162 0.22298,0.12926 0.51381,0.12926 z"
             style="font-size:6.61805px;letter-spacing:-0.270926px;fill:#000000;fill-opacity:1;stroke-width:0.0171688"
             id="path917" />
          <path
             d="m 106.14133,101.99991 h 1.50263 q 0.21328,0 0.37485,-0.10018 0.16158,-0.10017 0.24883,-0.28437 0.0905,-0.18419 0.0905,-0.42332 v 0 q 0,-0.24236 -0.0905,-0.42655 -0.0872,-0.1842 -0.24883,-0.28437 -0.16157,-0.10341 -0.37485,-0.10341 h -1.50263 v -0.626904 h 1.48001 q 0.42009,0 0.74001,0.180963 0.31991,0.177731 0.49441,0.504111 0.17773,0.32638 0.17773,0.75616 v 0 q 0,0.42979 -0.17773,0.75617 -0.1745,0.32314 -0.49441,0.50087 -0.31992,0.17773 -0.74001,0.17773 h -1.48001 z m -0.33931,-2.249104 h 0.65922 v 4.698554 h -0.65922 z"
             style="font-size:6.61805px;letter-spacing:-0.270926px;fill:#000000;fill-opacity:1;stroke-width:0.0171688"
             id="path919" />
          <path
             d="m 110.72407,100.13535 h 0.65922 v 4.31401 h -0.65922 z m -1.32813,-0.384544 h 3.31549 v 0.626904 h -3.31549 z"
             style="font-size:6.61805px;letter-spacing:-0.270926px;fill:#000000;fill-opacity:1;stroke-width:0.0171688"
             id="path921" />
          <path
             d="m 113.75248,104.44936 h -0.65922 v -4.698554 h 0.65922 z"
             style="font-size:6.61805px;letter-spacing:-0.270926px;fill:#000000;fill-opacity:1;stroke-width:0.0171688"
             id="path923" />
          <path
             d="m 116.18306,104.49784 q -0.48795,0 -0.85957,-0.21651 -0.36839,-0.21651 -0.57197,-0.61398 -0.20359,-0.39747 -0.20359,-0.92097 v -1.28936 q 0,-0.5235 0.20359,-0.92097 0.20358,-0.39747 0.57197,-0.613976 0.37162,-0.21974 0.85957,-0.21974 0.40393,0 0.74324,0.1745 0.3393,0.171266 0.5655,0.487956 0.22944,0.31668 0.31022,0.73354 v 0 h -0.67537 v 0 q -0.0614,-0.21974 -0.20682,-0.39101 -0.14218,-0.1745 -0.33607,-0.26821 -0.19389,-0.0937 -0.4007,-0.0937 -0.2876,0 -0.50411,0.13895 -0.21651,0.13895 -0.33607,0.39101 -0.11957,0.24882 -0.11957,0.58166 v 1.28936 q 0,0.32961 0.11957,0.58166 0.11956,0.25206 0.33607,0.39101 0.21651,0.13572 0.50411,0.13572 0.21004,0 0.4007,-0.0872 0.19389,-0.0873 0.33607,-0.25851 0.14542,-0.17127 0.20682,-0.40717 v 0 h 0.67537 v 0 q -0.0808,0.41686 -0.31022,0.73354 -0.22943,0.31669 -0.56874,0.49119 -0.3393,0.17127 -0.74,0.17127 z"
             style="font-size:6.61805px;letter-spacing:-0.270926px;fill:#000000;fill-opacity:1;stroke-width:0.0171688"
             id="path925" />
          <path
             d="m 119.75435,104.49784 q -0.3393,0 -0.64306,-0.0646 -0.30376,-0.0646 -0.56874,-0.19389 -0.26175,-0.12926 -0.49119,-0.32315 v 0 l 0.4104,-0.50411 v 0 q 0.26821,0.23267 0.59136,0.349 0.32315,0.11633 0.70123,0.11633 0.51057,0 0.79171,-0.18742 0.28114,-0.19066 0.28114,-0.53643 v -0.003 q 0,-0.24559 -0.12926,-0.38777 -0.12603,-0.14542 -0.32961,-0.21328 -0.20035,-0.0711 -0.52027,-0.12926 -0.01,-0.003 -0.0226,-0.003 -0.01,0 -0.0194,-0.003 l -0.0485,-0.01 q -0.47179,-0.0808 -0.76909,-0.18096 -0.29406,-0.10341 -0.50411,-0.37162 -0.21004,-0.27144 -0.21004,-0.76909 v -0.003 q 0,-0.43625 0.19388,-0.74324 0.19712,-0.31022 0.57197,-0.471792 0.37486,-0.161574 0.90158,-0.161574 0.25206,0 0.49442,0.05494 0.24559,0.05494 0.48149,0.164805 0.23913,0.106641 0.46856,0.271451 v 0 l -0.37485,0.5235 v 0 q -0.26821,-0.19712 -0.53642,-0.29407 -0.26498,-0.10017 -0.5332,-0.10017 -0.48148,0 -0.7497,0.19387 -0.26498,0.19066 -0.26498,0.54289 v 0.003 q 0,0.24237 0.13572,0.38133 0.13896,0.13894 0.34254,0.20681 0.20681,0.0646 0.57197,0.13572 0.0129,0.003 0.0226,0.006 0.0129,0 0.0259,0.003 0.0162,0.003 0.0356,0.006 0.0194,0.003 0.0356,0.006 0.42655,0.0872 0.71092,0.20682 0.2876,0.11956 0.47826,0.38777 0.19388,0.26498 0.19388,0.72708 v 0.006 q 0,0.42978 -0.20358,0.73677 -0.20358,0.30376 -0.59136,0.46533 -0.38454,0.15835 -0.93066,0.15835 z"
             style="font-size:6.61805px;letter-spacing:-0.270926px;fill:#000000;fill-opacity:1;stroke-width:0.0171688"
             id="path927" />
        </g>
      </g>
    </g>
  </g>
</svg>
