<?xml version="1.0" standalone="no"?>
<!DOCTYPE svg PUBLIC "-//W3C//DTD SVG 20010904//EN"
 "http://www.w3.org/TR/2001/REC-SVG-20010904/DTD/svg10.dtd">
<svg version="1.0" xmlns="http://www.w3.org/2000/svg"
 width="1025.968956pt" height="258.019302pt" viewBox="0 0 1025.968956 258.019302"
 preserveAspectRatio="xMidYMid meet">
<metadata>
Created by potrace 1.12, written by Peter Selinger 2001-2015
</metadata>
<g transform="translate(-41.031044,258.000000) scale(0.100000,-0.100000)"
fill="#000000" stroke="none">
<path d="M4100 2369 l0 -210 37 3 37 3 62 190 c35 105 63 198 63 208 1 15 -10
17 -99 17 l-100 0 0 -211z"/>
<path d="M3995 2555 c-72 -19 -105 -33 -105 -44 0 -15 121 -365 129 -374 5 -4
20 -3 34 4 l27 12 0 209 c0 235 7 218 -85 193z"/>
<path d="M4265 2369 c-37 -110 -65 -202 -64 -204 2 -1 21 -5 43 -7 l39 -3 128
175 c91 123 125 176 116 182 -16 11 -164 58 -182 58 -9 0 -37 -70 -80 -201z"/>
<path d="M3799 2471 c-24 -16 -55 -38 -67 -49 l-24 -19 122 -161 122 -161 25
16 c13 9 22 21 20 27 -2 6 -33 93 -68 193 -35 101 -69 183 -75 183 -5 0 -30
-13 -55 -29z"/>
<path d="M4440 2324 c-69 -92 -126 -170 -128 -174 -2 -4 13 -18 32 -30 l36
-22 175 128 c97 69 178 131 182 137 3 5 -5 18 -18 29 -34 28 -141 98 -148 98
-3 0 -62 -75 -131 -166z"/>
<path d="M2240 2427 c-68 -23 -88 -120 -37 -176 12 -13 46 -38 75 -57 62 -40
81 -72 64 -109 -9 -20 -19 -25 -46 -25 -37 0 -52 13 -58 50 -2 20 -9 25 -33
25 -27 0 -30 -4 -33 -33 -3 -25 3 -39 27 -62 26 -27 36 -30 91 -30 55 0 65 3
91 29 24 24 29 38 29 76 0 62 -10 78 -83 126 -34 23 -68 49 -74 57 -21 25 -15
60 12 78 33 21 64 10 72 -27 5 -25 10 -29 39 -29 28 0 34 4 34 20 0 41 -29 79
-68 89 -46 13 -58 13 -102 -2z"/>
<path d="M417 2423 c-10 -10 -8 -282 3 -328 14 -61 48 -85 121 -85 118 0 129
21 129 250 l0 170 -30 0 -30 0 0 -157 c0 -185 -7 -206 -62 -211 -61 -5 -68 15
-68 205 l0 163 -28 0 c-16 0 -32 -3 -35 -7z"/>
<path d="M760 2221 l0 -211 25 0 25 0 2 172 3 173 59 -173 60 -172 48 0 48 0
0 210 0 210 -30 0 -30 0 -2 -166 -3 -166 -56 163 -56 164 -47 3 -46 3 0 -210z"/>
<path d="M1130 2220 l0 -210 30 0 30 0 0 210 0 210 -30 0 -30 0 0 -210z"/>
<path d="M1250 2413 c0 -10 22 -103 48 -208 l48 -190 40 0 39 0 52 195 c29
107 52 201 53 208 0 7 -12 12 -30 12 -33 0 -30 10 -77 -202 -15 -71 -30 -128
-34 -128 -3 0 -18 57 -33 128 -45 209 -42 202 -76 202 -22 0 -30 -5 -30 -17z"/>
<path d="M1580 2220 l0 -210 105 0 105 0 0 25 c0 24 -2 25 -70 25 l-70 0 0 70
0 70 65 0 c63 0 65 1 65 25 0 24 -2 25 -65 25 l-65 0 0 65 0 65 70 0 c68 0 70
1 70 25 l0 25 -105 0 -105 0 0 -210z"/>
<path d="M1865 2418 c-3 -7 -4 -101 -3 -208 l3 -195 33 -3 32 -3 0 95 0 96 33
0 c50 0 67 -25 67 -97 0 -81 6 -93 42 -93 l30 0 -4 92 c-4 76 -8 94 -24 106
-19 15 -19 16 3 38 33 33 32 112 -1 151 -23 26 -30 28 -115 31 -70 3 -92 1
-96 -10z m150 -52 c22 -16 26 -76 6 -100 -8 -10 -29 -16 -52 -16 l-39 0 0 65
0 65 33 0 c18 0 42 -6 52 -14z"/>
<path d="M2490 2219 l0 -210 33 3 32 3 3 208 2 207 -35 0 -35 0 0 -211z"/>
<path d="M2610 2405 c0 -23 4 -25 45 -25 l45 0 2 -182 3 -183 33 -3 32 -3 0
185 0 186 45 0 c41 0 45 2 45 25 l0 25 -125 0 -125 0 0 -25z"/>
<path d="M2880 2421 c0 -4 21 -55 47 -112 41 -93 47 -114 52 -199 l6 -95 33
-3 32 -3 0 81 c0 77 3 87 55 203 30 67 55 125 55 130 0 4 -14 7 -32 5 -30 -3
-34 -8 -69 -98 l-36 -95 -15 35 c-8 19 -25 63 -37 98 -22 59 -25 62 -57 62
-19 0 -34 -4 -34 -9z"/>
<path d="M3641 2315 c-27 -39 -41 -69 -35 -74 5 -5 76 -57 158 -115 135 -96
150 -104 162 -89 7 10 9 23 6 29 -16 26 -237 314 -242 314 -3 0 -25 -29 -49
-65z"/>
<path d="M4590 2219 c-91 -66 -171 -124 -179 -128 -11 -7 -7 -17 18 -48 l32
-40 210 78 c116 43 213 80 216 82 11 12 -103 178 -121 176 -6 0 -85 -54 -176
-120z"/>
<path d="M5759 2257 c-129 -69 -141 -256 -21 -341 48 -34 128 -45 184 -27 40
13 92 61 116 105 21 41 21 132 -1 173 -54 102 -179 142 -278 90z m146 -61
c103 -43 96 -198 -11 -235 -49 -17 -84 -10 -126 28 -26 23 -32 37 -36 82 -3
45 0 59 19 83 23 29 70 55 102 56 10 0 33 -6 52 -14z"/>
<path d="M6190 2258 c-26 -14 -57 -41 -75 -66 -26 -38 -30 -52 -30 -112 0 -60
4 -74 30 -111 18 -25 50 -53 78 -67 39 -21 47 -29 47 -53 0 -26 3 -29 35 -29
32 0 35 3 35 28 0 23 8 31 50 50 33 15 62 38 81 65 l31 42 -42 3 c-32 3 -48
-2 -65 -18 -69 -65 -180 -32 -206 62 -20 75 44 158 121 158 29 0 90 -30 97
-47 3 -8 21 -13 44 -13 l39 0 0 60 0 60 -30 0 c-20 0 -30 -5 -30 -15 0 -13 -6
-12 -40 5 -52 26 -115 26 -170 -2z"/>
<path d="M5300 2240 c0 -23 4 -30 20 -30 19 0 20 -7 20 -130 0 -123 -1 -130
-20 -130 -16 0 -20 -7 -20 -30 l0 -30 80 0 80 0 0 30 c0 23 -4 30 -20 30 -18
0 -20 7 -20 57 l0 57 55 -54 c44 -43 52 -56 40 -63 -8 -4 -15 -19 -15 -32 0
-25 1 -25 85 -25 l85 0 0 30 c0 23 -5 30 -19 30 -10 0 -51 30 -91 67 l-72 66
69 63 c37 35 76 63 86 64 12 0 17 8 17 30 l0 30 -80 0 -80 0 0 -30 c0 -22 5
-30 17 -30 12 0 2 -15 -32 -50 -27 -27 -53 -50 -57 -50 -4 0 -8 23 -8 50 0 43
3 50 20 50 16 0 20 7 20 30 l0 30 -80 0 -80 0 0 -30z"/>
<path d="M3565 2158 c-28 -97 -36 -89 157 -151 95 -31 173 -55 174 -54 1 1 4
11 7 22 5 17 -19 38 -147 128 -85 59 -159 107 -165 107 -5 0 -17 -23 -26 -52z"/>
<path d="M4123 2123 c-20 -4 -23 -11 -23 -49 0 -60 23 -58 44 3 18 54 18 53 9
52 -5 -1 -18 -4 -30 -6z"/>
<path d="M4175 2096 c-20 -46 -23 -81 -8 -81 11 0 88 93 81 100 -1 2 -15 6
-31 10 -24 6 -29 3 -42 -29z"/>
<path d="M4680 2056 c-222 -78 -216 -74 -191 -139 l11 -27 225 0 225 0 0 24
c0 37 -28 173 -40 196 -6 11 -14 20 -18 19 -4 0 -99 -33 -212 -73z"/>
<path d="M4048 2099 c-14 -8 -15 -14 -6 -40 12 -36 32 -33 36 5 4 35 -7 48
-30 35z"/>
<path d="M4235 2050 c-25 -33 -43 -65 -40 -70 4 -6 31 7 66 31 83 59 87 65 50
83 l-30 16 -46 -60z"/>
<path d="M3990 2065 c-9 -11 -9 -18 2 -34 20 -29 42 -12 29 22 -12 31 -14 32
-31 12z"/>
<path d="M4310 2019 c-30 -23 -63 -47 -74 -54 -11 -8 -16 -20 -13 -29 5 -13
19 -11 94 16 48 17 92 34 96 38 5 4 -4 22 -20 38 l-28 31 -55 -40z"/>
<path d="M3542 1967 l3 -72 178 -3 c167 -2 177 -1 177 16 0 19 -34 31 -303
113 l-58 17 3 -71z"/>
<path d="M4333 1937 c-51 -17 -93 -35 -93 -39 0 -4 50 -8 111 -8 98 0 110 2
105 16 -3 9 -9 27 -12 40 -7 29 2 29 -111 -9z"/>
<path d="M460 1863 c-38 -35 -55 -121 -46 -237 7 -82 24 -129 54 -145 31 -16
97 -20 131 -8 58 21 73 52 79 165 6 135 -3 188 -38 224 -25 25 -36 28 -89 28
-52 0 -65 -4 -91 -27z m137 -53 c15 -30 18 -217 3 -254 -21 -56 -82 -57 -106
0 -19 45 -19 204 1 250 13 33 17 35 52 32 28 -2 41 -9 50 -28z"/>
<path d="M760 1679 l0 -210 33 3 32 3 3 93 3 92 59 0 c57 0 60 1 60 25 0 24
-3 25 -60 25 l-60 0 0 65 0 65 60 0 c57 0 60 1 60 25 0 25 0 25 -95 25 l-95 0
0 -211z"/>
<path d="M1127 1883 c-4 -3 -7 -14 -7 -24 0 -14 10 -19 48 -21 l47 -3 3 -183
2 -183 33 3 32 3 3 183 2 182 45 0 c41 0 45 2 45 25 l0 25 -123 0 c-68 0 -127
-3 -130 -7z"/>
<path d="M1410 1883 c0 -5 20 -98 44 -208 l42 -200 40 0 39 0 23 110 c12 61
27 134 33 163 6 30 12 52 14 50 2 -2 15 -68 30 -148 35 -195 30 -182 73 -178
l37 3 46 200 c25 110 43 204 39 208 -4 5 -18 7 -31 5 -23 -3 -26 -13 -54 -160
-16 -87 -32 -158 -35 -158 -3 0 -18 68 -33 152 -15 83 -30 155 -33 160 -8 13
-71 9 -76 -4 -3 -7 -18 -79 -34 -160 -15 -82 -31 -148 -34 -148 -3 0 -11 33
-18 73 -7 39 -19 111 -28 160 l-16 87 -34 0 c-19 0 -34 -3 -34 -7z"/>
<path d="M1930 1680 l0 -211 103 3 c97 3 102 4 105 25 3 21 -1 22 -70 25 l-73
3 -3 68 -3 67 66 0 c63 0 65 1 65 25 0 24 -2 25 -65 25 l-66 0 3 63 3 62 68 3
c64 3 67 4 67 27 0 25 0 25 -100 25 l-100 0 0 -210z"/>
<path d="M2210 1681 l0 -211 25 0 25 0 0 167 c0 100 4 163 9 158 5 -6 34 -80
64 -165 l54 -155 52 -3 51 -3 -2 208 -3 208 -27 3 -28 3 0 -172 c0 -95 -2
-170 -5 -167 -3 2 -31 79 -63 169 l-57 164 -48 3 -47 3 0 -210z"/>
<path d="M2539 1888 c0 -2 -2 -13 -3 -25 -2 -21 1 -23 46 -23 l48 0 0 -186 0
-185 33 3 32 3 3 183 2 182 45 0 c41 0 45 2 45 25 l0 25 -125 0 c-69 0 -125
-1 -126 -2z"/>
<path d="M2840 1680 l0 -210 105 0 105 0 0 25 c0 24 -2 25 -70 25 l-70 0 0 70
0 70 65 0 c63 0 65 1 65 25 0 24 -2 25 -65 25 l-65 0 0 65 0 65 70 0 c68 0 70
1 70 25 l0 25 -105 0 -105 0 0 -210z"/>
<path d="M3550 1847 c0 -13 7 -44 16 -69 l15 -46 165 55 c101 34 163 60 161
67 -2 7 -59 12 -180 14 l-177 2 0 -23z"/>
<path d="M4240 1857 c0 -20 211 -89 222 -73 10 14 10 64 1 69 -5 3 -56 8 -115
12 -93 6 -108 5 -108 -8z"/>
<path d="M3761 1766 c-85 -29 -156 -57 -159 -64 -6 -20 58 -104 75 -97 12 4
206 137 252 172 2 1 0 11 -5 22 -8 17 -18 15 -163 -33z"/>
<path d="M4230 1805 c0 -12 175 -146 195 -149 12 -2 37 77 28 85 -8 8 -202 79
-215 79 -5 0 -8 -7 -8 -15z"/>
<path d="M4205 1760 c-5 -14 13 -45 70 -120 42 -55 79 -100 83 -100 8 0 66 80
61 84 -2 1 -44 34 -94 72 -115 90 -112 88 -120 64z"/>
<path d="M3824 1672 c-67 -48 -123 -91 -124 -97 -4 -10 74 -75 90 -75 4 0 49
55 99 122 65 87 88 124 79 130 -7 4 -15 8 -18 8 -3 0 -59 -39 -126 -88z"/>
<path d="M3907 1609 c-49 -67 -85 -125 -80 -129 18 -16 104 -43 112 -34 10 11
81 246 81 268 0 37 -30 8 -113 -105z"/>
<path d="M4150 1722 c0 -10 90 -255 96 -261 5 -5 84 48 84 57 0 17 -153 212
-166 212 -8 0 -14 -4 -14 -8z"/>
<path d="M4046 1712 c-2 -4 -21 -67 -41 -140 -43 -150 -43 -152 33 -152 l42 0
0 144 c0 117 -3 145 -15 149 -8 4 -16 3 -19 -1z"/>
<path d="M4107 1714 c-4 -4 -7 -70 -7 -147 l0 -140 50 6 c28 3 55 9 60 12 9 5
-72 251 -89 268 -4 4 -10 4 -14 1z"/>
<path d="M7413 1706 c-36 -17 -63 -61 -63 -105 0 -44 44 -87 109 -109 62 -21
77 -37 67 -75 -12 -49 -78 -48 -101 1 -7 16 -19 22 -42 22 l-33 0 0 -55 c0
-61 16 -78 53 -56 14 9 22 10 30 2 6 -6 30 -11 53 -11 101 0 154 118 87 192
-8 9 -38 25 -67 34 -87 28 -111 67 -61 100 21 14 31 15 50 6 14 -7 25 -18 25
-27 0 -11 10 -15 35 -15 l35 0 0 50 0 51 -42 -1 c-24 -1 -56 1 -73 4 -17 4
-44 0 -62 -8z"/>
<path d="M5300 1680 c0 -23 4 -30 20 -30 19 0 20 -7 20 -110 0 -166 26 -211
128 -218 48 -3 63 0 92 20 47 32 59 72 59 201 1 100 2 107 21 107 16 0 20 7
20 30 l0 30 -75 0 -75 0 0 -30 c0 -20 5 -30 15 -30 12 0 15 -19 15 -113 0 -98
-3 -116 -18 -130 -23 -21 -66 -22 -86 -1 -23 22 -24 244 -1 244 10 0 15 10 15
30 l0 30 -75 0 -75 0 0 -30z"/>
<path d="M5680 1680 c0 -23 4 -30 20 -30 19 0 20 -7 20 -130 0 -123 -1 -130
-20 -130 -16 0 -20 -7 -20 -35 l0 -35 75 0 75 0 0 35 c0 28 -4 35 -20 35 -19
0 -20 7 -20 90 0 50 2 90 4 90 3 0 41 -51 85 -114 92 -129 101 -139 133 -134
23 3 23 4 26 166 2 154 4 162 22 162 16 0 20 7 20 30 l0 30 -75 0 -75 0 0 -30
c0 -23 4 -30 20 -30 19 0 20 -7 20 -95 0 -52 -2 -95 -3 -95 -2 0 -44 56 -93
125 l-88 125 -53 0 c-52 0 -53 0 -53 -30z"/>
<path d="M6110 1680 c0 -23 4 -30 20 -30 19 0 20 -7 20 -130 0 -125 -1 -130
-21 -130 -17 0 -20 -5 -17 -32 l3 -33 75 0 75 0 0 30 c0 24 -5 31 -23 33 -22
3 -23 5 -20 130 3 123 4 127 26 130 17 3 22 10 22 33 l0 29 -80 0 -80 0 0 -30z"/>
<path d="M6287 1703 c-4 -3 -7 -17 -7 -30 0 -17 6 -23 23 -23 20 0 28 -17 78
-163 l56 -162 36 -3 c44 -4 44 -3 112 190 40 112 52 138 69 140 15 2 21 10 21
28 0 24 -2 25 -77 28 l-78 3 0 -31 c0 -24 4 -30 21 -30 11 0 19 -4 17 -8 -1
-4 -19 -52 -38 -105 -19 -53 -37 -97 -40 -97 -5 0 -71 188 -70 203 0 4 7 7 15
7 10 0 15 10 15 30 l0 30 -73 0 c-41 0 -77 -3 -80 -7z"/>
<path d="M6690 1680 c0 -23 4 -30 20 -30 19 0 20 -7 20 -129 0 -122 -1 -129
-21 -134 -16 -4 -20 -12 -17 -34 l3 -28 140 0 140 0 3 58 3 57 -41 0 c-36 0
-40 -2 -40 -25 0 -23 -4 -25 -45 -25 l-45 0 0 50 0 50 55 0 c54 0 55 0 55 30
0 30 -1 30 -55 30 l-55 0 0 45 0 45 44 0 c39 0 45 -3 48 -22 2 -19 9 -23 38
-23 l35 0 3 58 3 57 -146 0 -145 0 0 -30z"/>
<path d="M7007 1704 c-4 -4 -7 -18 -7 -30 0 -16 7 -24 23 -26 21 -3 22 -7 25
-130 3 -125 2 -127 -20 -130 -18 -2 -23 -9 -23 -33 l0 -30 73 -3 72 -3 0 36
c0 24 -4 35 -15 35 -11 0 -15 12 -15 52 0 58 -2 59 65 -37 58 -83 60 -85 108
-85 36 0 37 1 37 35 0 30 -3 35 -22 35 -14 0 -34 14 -51 35 l-28 35 24 9 c42
16 67 58 67 112 0 42 -5 55 -34 87 l-34 37 -119 3 c-65 2 -121 0 -126 -4z
m227 -86 c39 -55 4 -108 -69 -108 l-45 0 0 65 0 65 49 0 c40 0 53 -4 65 -22z"/>
<path d="M7630 1680 c0 -23 4 -30 20 -30 19 0 20 -7 20 -130 0 -125 -1 -130
-21 -130 -17 0 -20 -5 -17 -32 l3 -33 75 0 c75 0 75 0 78 28 3 22 -1 30 -17
34 -20 5 -21 12 -21 134 0 122 1 129 20 129 16 0 20 7 20 30 l0 30 -80 0 -80
0 0 -30z"/>
<path d="M7810 1650 l0 -60 30 0 c25 0 30 4 30 24 0 17 7 25 25 28 13 3 27 3
30 0 3 -3 5 -61 5 -129 0 -116 -1 -123 -20 -123 -16 0 -20 -7 -20 -35 l0 -35
75 0 75 0 0 35 c0 28 -4 35 -20 35 -19 0 -20 7 -20 125 l0 125 30 0 c25 0 30
-4 30 -25 0 -21 5 -25 30 -25 l31 0 -3 58 -3 57 -152 3 -153 3 0 -61z"/>
<path d="M8130 1680 c0 -23 5 -30 19 -30 14 0 33 -26 70 -95 57 -106 68 -165
30 -165 -17 0 -20 -5 -17 -32 l3 -33 75 0 75 0 0 30 c0 23 -5 31 -22 33 -38 5
-29 53 30 163 35 67 58 99 70 99 12 0 17 8 17 30 l0 31 -72 -3 c-68 -3 -73 -5
-76 -26 -3 -17 2 -25 17 -29 20 -5 19 -7 -10 -66 l-31 -60 -29 49 c-32 55 -36
74 -14 74 10 0 15 10 15 30 l0 30 -75 0 -75 0 0 -30z"/>
<path d="M3117 1523 c-13 -12 -7 -51 9 -57 21 -8 20 -8 38 10 12 12 13 20 6
35 -10 19 -40 26 -53 12z"/>
<path d="M1214 1073 c-325 -441 -604 -823 -604 -828 0 -3 33 -5 73 -5 l73 0
80 113 80 112 217 3 218 2 -3 -115 -3 -115 83 0 82 0 0 108 0 107 29 -51 c59
-102 163 -164 288 -172 90 -6 185 17 243 59 22 16 42 29 45 29 3 0 31 -20 63
-45 31 -25 62 -45 67 -45 10 1 80 90 73 94 -1 1 -33 25 -69 54 l-66 52 15 66
16 66 16 -64 c19 -77 47 -125 106 -176 125 -111 357 -107 487 7 48 43 96 141
107 222 12 82 12 355 0 438 -18 128 -86 222 -199 274 -56 27 -77 31 -151 31
-186 2 -314 -92 -343 -250 -11 -59 -27 -78 -27 -33 0 10 -9 43 -20 73 -103
273 -528 288 -659 23 l-20 -41 -3 115 -3 114 -61 3 -61 3 -169 -228z m1487 43
c22 -15 47 -45 63 -77 26 -52 26 -56 26 -262 0 -136 -4 -224 -12 -250 -44
-147 -246 -194 -355 -82 -58 61 -66 104 -61 350 3 184 5 204 26 246 54 110
205 146 313 75z m-760 20 c48 -20 87 -59 109 -108 17 -38 20 -67 20 -265 0
-122 -4 -224 -8 -227 -5 -3 -34 15 -65 40 -31 24 -60 44 -65 44 -8 0 -72 -79
-72 -89 0 -4 29 -29 65 -56 35 -28 64 -53 65 -56 1 -16 -84 -42 -136 -41 -79
1 -140 34 -179 97 l-30 48 -3 216 c-2 144 0 229 8 257 16 55 64 112 114 135
49 22 131 24 177 5z m-580 -286 l-6 -235 -162 -3 c-90 -1 -163 1 -163 4 0 8
333 475 336 471 1 -1 -1 -108 -5 -237z m804 45 c0 -28 -7 -30 -37 -14 -21 11
-21 12 -3 25 28 21 40 17 40 -11z m122 -56 c27 -10 27 -11 9 -25 -29 -21 -41
-17 -41 11 0 14 1 25 2 25 1 0 14 -5 30 -11z m-122 -84 c0 -20 -4 -24 -20 -19
-34 11 -40 23 -14 33 34 14 34 14 34 -14z m139 -65 c6 -6 -5 -16 -27 -25 -41
-17 -61 -20 -34 -4 20 12 23 35 5 43 -7 3 1 4 17 0 17 -3 34 -9 39 -14z m-133
-59 c-8 -5 -11 -16 -8 -25 8 -19 6 -19 -30 -5 l-28 11 30 14 c34 15 57 18 36
5z"/>
<path d="M3680 1045 c0 -16 6 -25 15 -25 12 0 15 -18 15 -105 0 -87 -3 -105
-15 -105 -9 0 -15 -9 -15 -25 l0 -25 110 0 110 0 0 50 c0 47 -2 50 -25 50 -20
0 -25 -5 -25 -25 0 -22 -4 -25 -40 -25 l-40 0 0 105 c0 87 3 105 15 105 9 0
15 9 15 25 0 24 -3 25 -60 25 -57 0 -60 -1 -60 -25z"/>
<path d="M3910 1045 c0 -16 6 -25 15 -25 12 0 15 -18 15 -105 0 -87 -3 -105
-15 -105 -9 0 -15 -9 -15 -25 0 -24 3 -25 60 -25 57 0 60 1 60 25 0 14 -4 25
-10 25 -5 0 -10 13 -10 30 0 26 4 30 38 36 63 11 90 30 98 68 16 87 -33 126
-158 126 -77 0 -78 0 -78 -25z m161 -35 c40 -22 13 -90 -37 -90 -22 0 -24 4
-24 50 0 44 3 50 21 50 11 0 29 -5 40 -10z"/>
<path d="M4170 1025 c0 -44 1 -45 30 -45 23 0 30 4 28 16 -2 10 3 19 10 21 9
4 12 -21 12 -101 0 -88 -3 -106 -15 -106 -9 0 -15 -9 -15 -25 0 -24 3 -25 60
-25 57 0 60 1 60 25 0 14 -4 25 -10 25 -6 0 -10 42 -10 107 0 58 3 103 8 99 4
-4 7 -13 7 -19 0 -7 15 -13 33 -15 l33 -3 -3 43 -3 43 -112 3 -113 3 0 -46z"/>
<path d="M3687 573 c-13 -12 -7 -44 8 -49 12 -5 15 -26 15 -105 0 -81 -3 -99
-15 -99 -9 0 -15 -9 -15 -25 l0 -25 111 0 110 0 -3 48 c-3 40 -6 47 -25 50
-19 3 -23 -1 -23 -22 0 -24 -4 -26 -40 -26 l-40 0 0 100 c0 82 3 100 15 100
10 0 15 10 15 30 0 30 -1 30 -53 30 -30 0 -57 -3 -60 -7z"/>
<path d="M4137 574 c-13 -14 -7 -54 8 -54 12 0 15 -18 15 -100 0 -84 -2 -100
-16 -100 -10 0 -14 -7 -12 -22 3 -22 8 -23 95 -25 88 -3 93 -2 112 23 44 56
33 133 -25 170 -20 14 -32 15 -59 7 l-34 -11 -3 57 -3 56 -35 3 c-20 2 -39 0
-43 -4z m161 -166 c7 -7 12 -24 12 -38 0 -33 -17 -50 -51 -50 -28 0 -39 15
-39 54 0 28 18 46 45 46 12 0 26 -5 33 -12z"/>
<path d="M6330 565 c-15 -18 -6 -45 15 -45 12 0 15 -17 15 -99 0 -92 -1 -99
-21 -104 -13 -4 -20 -12 -17 -24 3 -15 15 -19 66 -21 61 -3 62 -2 62 23 0 16
-6 25 -16 25 -11 0 -14 8 -12 28 3 23 8 28 43 33 73 10 105 39 105 96 0 38
-25 72 -66 89 -46 19 -158 19 -174 -1z m164 -61 c20 -19 20 -24 0 -52 -10 -14
-25 -22 -45 -22 -28 0 -29 2 -29 45 0 43 1 45 29 45 16 0 37 -7 45 -16z"/>
<path d="M6587 573 c-13 -13 -7 -53 8 -53 12 0 15 -18 15 -100 0 -82 -3 -100
-15 -100 -9 0 -15 -9 -15 -25 0 -24 3 -25 60 -25 57 0 60 1 60 25 0 16 -6 25
-15 25 -11 0 -15 11 -15 40 0 34 4 42 26 52 32 15 44 0 44 -54 0 -27 -4 -38
-15 -38 -9 0 -15 -9 -15 -25 0 -24 3 -25 55 -25 52 0 55 1 55 25 0 16 -6 25
-15 25 -12 0 -15 13 -15 59 0 73 -16 94 -70 93 -3 0 -15 -3 -27 -7 -22 -6 -23
-4 -23 48 0 41 -4 56 -16 61 -21 8 -59 8 -67 -1z"/>
<path d="M8120 535 c0 -44 1 -45 31 -45 24 0 30 4 25 15 -3 9 0 15 9 15 12 0
15 -19 15 -100 0 -82 -3 -100 -15 -100 -9 0 -15 -9 -15 -25 0 -24 2 -25 65
-25 59 0 65 2 65 20 0 11 -7 23 -15 26 -12 5 -15 26 -15 105 0 59 4 99 10 99
6 0 10 -7 10 -15 0 -10 10 -15 30 -15 29 0 30 2 30 45 l0 45 -115 0 -115 0 0
-45z"/>
<path d="M8813 574 c-18 -8 -16 -43 2 -50 12 -5 15 -26 15 -104 0 -78 -3 -99
-15 -104 -8 -3 -15 -15 -15 -26 0 -18 6 -20 60 -20 57 0 60 1 60 25 0 16 -6
25 -15 25 -24 0 -20 76 4 90 34 18 41 12 41 -40 0 -27 -4 -50 -10 -50 -5 0
-10 -11 -10 -25 0 -24 3 -25 55 -25 42 0 57 4 62 16 4 10 0 22 -9 28 -9 6 -17
35 -21 70 -8 81 -31 100 -99 83 -27 -7 -27 -7 -30 50 -3 57 -4 58 -33 60 -16
1 -36 0 -42 -3z"/>
<path d="M9537 574 c-13 -14 -7 -54 8 -54 12 0 15 -18 15 -100 0 -82 -3 -100
-15 -100 -9 0 -15 -9 -15 -25 0 -24 3 -25 60 -25 54 0 60 2 60 21 0 12 -8 23
-20 26 -18 5 -20 15 -22 132 l-3 126 -30 3 c-17 2 -34 0 -38 -4z"/>
<path d="M6130 550 c-11 -11 -20 -33 -20 -49 0 -16 -6 -31 -15 -35 -8 -3 -15
-12 -15 -21 0 -9 7 -18 15 -21 22 -9 21 -104 -1 -104 -10 0 -14 -7 -12 -22 3
-20 10 -23 61 -26 55 -3 57 -2 57 23 0 14 -4 25 -10 25 -5 0 -10 23 -10 50 0
28 5 50 10 50 6 0 10 11 10 25 0 14 -4 25 -10 25 -5 0 -10 11 -10 25 0 14 5
25 10 25 6 0 10 11 10 25 0 20 -5 25 -25 25 -14 0 -34 -9 -45 -20z"/>
<path d="M7700 520 c0 -25 4 -30 25 -30 21 0 25 5 25 30 0 25 -4 30 -25 30
-21 0 -25 -5 -25 -30z"/>
<path d="M10162 523 c2 -22 8 -28 28 -28 20 0 26 6 28 28 3 24 0 27 -28 27
-28 0 -31 -3 -28 -27z"/>
<path d="M5020 501 c0 -16 -6 -31 -15 -35 -19 -7 -19 -33 -1 -43 10 -6 16 -30
18 -78 l3 -70 43 -3 c39 -3 42 -1 42 22 0 14 -4 26 -10 26 -5 0 -10 23 -10 50
0 28 5 50 10 50 6 0 10 11 10 25 0 14 -4 25 -10 25 -5 0 -10 14 -10 30 0 28
-3 30 -35 30 -32 0 -35 -3 -35 -29z"/>
<path d="M7080 500 c0 -16 -4 -30 -10 -30 -5 0 -10 -11 -10 -25 0 -14 4 -25
10 -25 5 0 10 -33 12 -72 l3 -73 45 0 c39 0 45 3 48 23 2 15 -2 22 -12 22 -22
0 -23 95 -1 104 8 3 15 12 15 21 0 9 -7 18 -15 21 -9 4 -15 19 -15 35 0 26 -3
29 -35 29 -32 0 -35 -2 -35 -30z"/>
<path d="M3962 469 c-28 -9 -31 -12 -22 -30 8 -14 20 -19 43 -17 33 2 57 -7
57 -20 0 -4 -18 -6 -39 -4 -32 3 -45 -1 -65 -22 -31 -30 -33 -59 -6 -86 17
-17 33 -20 105 -20 84 0 85 0 85 25 0 14 -4 25 -10 25 -5 0 -10 17 -10 39 0
61 -17 98 -52 110 -36 13 -41 13 -86 0z m73 -134 c0 -26 -49 -34 -59 -10 -9
25 3 37 32 33 19 -2 27 -9 27 -23z"/>
<path d="M4439 457 c-41 -27 -60 -78 -48 -122 13 -45 45 -65 106 -65 45 0 54
4 77 31 48 57 29 136 -40 165 -45 19 -55 18 -95 -9z m97 -62 c15 -23 15 -27 0
-50 -30 -46 -96 -26 -96 29 0 46 69 61 96 21z"/>
<path d="M4746 473 c-4 -4 -34 -6 -66 -5 -58 2 -60 2 -60 -23 0 -16 6 -25 15
-25 11 0 15 -12 15 -50 0 -38 -4 -50 -15 -50 -9 0 -15 -9 -15 -25 0 -24 3 -25
55 -25 52 0 55 1 55 25 0 16 -6 25 -16 25 -12 0 -14 9 -12 43 3 38 6 43 36 52
24 7 32 15 32 31 0 24 -13 38 -24 27z"/>
<path d="M4830 471 c-14 -4 -25 -12 -24 -19 3 -33 5 -34 38 -29 19 3 39 0 45
-6 18 -18 13 -25 -14 -19 -36 6 -80 -15 -94 -45 -10 -23 -9 -31 7 -52 18 -24
26 -26 111 -29 l91 -3 0 26 c0 16 -6 25 -15 25 -11 0 -15 12 -15 51 0 63 -11
84 -51 98 -35 12 -42 12 -79 2z m65 -136 c0 -22 -31 -33 -47 -17 -17 17 -1 44
24 40 15 -2 23 -10 23 -23z"/>
<path d="M5195 471 c-40 -17 -68 -58 -68 -99 0 -73 33 -102 118 -102 56 0 95
41 95 101 0 71 -81 128 -145 100z m81 -76 c15 -23 15 -27 0 -50 -30 -46 -86
-25 -86 32 0 46 59 59 86 18z"/>
<path d="M5484 470 c-3 -2 -32 -3 -64 -2 -58 2 -60 2 -60 -23 0 -16 6 -25 15
-25 11 0 15 -12 15 -50 0 -38 -4 -50 -15 -50 -9 0 -15 -9 -15 -25 0 -24 3 -25
55 -25 52 0 55 1 55 25 0 16 -6 25 -15 25 -11 0 -15 11 -15 40 0 43 18 60 62
60 21 0 28 -11 52 -70 29 -74 28 -105 -4 -113 -11 -3 -18 -12 -16 -23 2 -16
13 -20 59 -22 55 -3 57 -2 57 22 0 13 -5 26 -10 28 -15 5 71 178 87 178 9 0
13 8 11 23 -3 19 -10 22 -55 25 -47 3 -53 1 -53 -17 0 -11 4 -22 9 -26 12 -7
-7 -65 -20 -65 -15 0 -33 54 -20 58 6 2 11 14 11 27 0 21 -5 23 -61 27 -33 1
-63 1 -65 -2z"/>
<path d="M5913 466 c-39 -18 -53 -43 -53 -97 0 -61 37 -99 96 -99 81 0 118 33
118 106 0 71 -90 122 -161 90z m91 -68 c26 -43 -31 -99 -70 -68 -17 15 -18 62
-2 78 17 17 58 11 72 -10z"/>
<path d="M6892 463 c-56 -28 -76 -87 -47 -143 20 -38 43 -50 100 -50 118 0
148 151 39 196 -42 18 -51 17 -92 -3z m86 -90 c3 -38 1 -43 -22 -49 -36 -9
-54 1 -62 31 -8 34 20 67 55 63 23 -3 26 -8 29 -45z"/>
<path d="M7244 464 c-36 -17 -56 -50 -57 -91 -1 -69 37 -103 116 -103 36 0 49
6 75 33 54 56 39 133 -34 163 -42 18 -61 17 -100 -2z m84 -56 c7 -7 12 -24 12
-38 0 -52 -61 -71 -82 -25 -23 51 32 101 70 63z"/>
<path d="M7545 470 c-11 -4 -44 -5 -72 -2 -44 4 -54 2 -59 -13 -5 -11 -1 -22
9 -30 11 -8 17 -27 17 -55 0 -28 -6 -47 -17 -55 -9 -7 -14 -19 -10 -28 5 -13
26 -16 126 -16 114 0 121 1 121 20 0 11 -7 22 -15 25 -11 5 -15 22 -15 64 0
42 -5 61 -17 72 -25 21 -45 26 -68 18z m23 -103 c2 -37 0 -47 -12 -47 -9 0
-17 -8 -17 -17 -1 -17 -2 -17 -6 0 -2 9 -9 17 -14 17 -14 0 -11 88 4 93 30 13
42 2 45 -46z"/>
<path d="M7853 464 c-46 -23 -69 -76 -54 -125 6 -21 21 -45 34 -54 31 -22 109
-20 138 4 22 18 23 21 8 36 -14 14 -21 15 -38 5 -36 -19 -74 -9 -85 22 -18 52
44 89 85 52 27 -25 49 -11 49 31 0 33 -2 35 -32 35 -18 0 -42 2 -53 5 -11 3
-34 -2 -52 -11z"/>
<path d="M8423 460 c-61 -37 -72 -106 -26 -160 25 -31 29 -32 85 -28 69 5 90
20 65 45 -13 13 -21 14 -41 5 -28 -13 -62 -6 -70 14 -4 11 9 14 69 14 69 0 75
2 75 20 0 34 -28 79 -60 95 -38 20 -58 19 -97 -5z m87 -55 c0 -11 -11 -15 -41
-15 -36 0 -40 2 -29 15 7 8 25 15 41 15 19 0 29 -5 29 -15z"/>
<path d="M8655 469 c-38 -22 -55 -53 -55 -100 0 -65 34 -99 100 -99 32 0 55 6
71 19 23 19 23 20 6 38 -14 15 -21 16 -37 5 -31 -19 -58 -14 -76 13 -15 23
-15 27 0 50 19 29 70 35 80 10 3 -8 15 -15 26 -15 17 0 20 6 20 40 0 37 -2 40
-29 40 -16 0 -41 2 -57 5 -16 3 -38 0 -49 -6z"/>
<path d="M9180 470 c-14 -4 -46 -5 -72 -2 -39 4 -49 2 -54 -13 -5 -11 -1 -22
9 -30 21 -15 24 -105 5 -105 -7 0 -13 -11 -13 -25 l0 -24 118 0 c108 0 117 1
117 19 0 10 -4 22 -10 25 -5 3 -10 27 -10 53 0 80 -34 117 -90 102z m18 -102
c3 -47 -11 -64 -43 -52 -23 9 -21 91 3 97 31 8 37 1 40 -45z"/>
<path d="M9362 463 c-66 -32 -82 -114 -33 -164 25 -24 37 -29 81 -29 42 0 55
5 74 25 50 54 39 131 -24 169 -35 20 -56 20 -98 -1z m90 -68 c17 -39 -3 -75
-42 -75 -37 0 -55 35 -40 75 7 19 17 25 40 25 23 0 33 -6 42 -25z"/>
<path d="M9724 466 c-67 -30 -85 -109 -38 -165 23 -27 32 -31 77 -31 74 1 107
33 107 102 0 43 -24 76 -66 94 -40 17 -41 17 -80 0z m81 -66 c15 -16 17 -26 9
-48 -8 -23 -15 -27 -49 -27 -34 0 -41 4 -49 27 -12 33 14 68 49 68 12 0 30 -9
40 -20z"/>
<path d="M9931 452 c-50 -49 -53 -102 -10 -156 20 -26 27 -28 71 -24 26 3 48
1 48 -4 0 -14 -43 -26 -72 -21 -20 4 -26 0 -31 -18 -3 -12 -4 -26 -1 -31 7
-12 92 -10 116 3 30 16 48 71 48 149 0 57 3 70 16 70 10 0 14 7 12 23 -3 19
-9 22 -58 24 -30 1 -67 4 -82 8 -22 6 -33 2 -57 -23z m97 -44 c7 -7 12 -24 12
-38 0 -31 -17 -50 -45 -50 -28 0 -45 19 -45 50 0 31 17 50 45 50 12 0 26 -5
33 -12z"/>
<path d="M10324 466 c-41 -18 -64 -52 -64 -94 0 -69 33 -101 106 -102 64 0
107 27 80 49 -13 11 -25 12 -50 4 -21 -6 -40 -7 -50 -1 -33 18 -14 28 54 28
l70 0 0 33 c0 35 -22 68 -57 86 -28 14 -51 13 -89 -3z m84 -63 c2 -9 -9 -13
-37 -13 -39 0 -55 13 -28 24 21 8 60 2 65 -11z"/>
<path d="M10527 469 c-10 -6 -22 -22 -28 -36 -14 -37 11 -69 67 -86 47 -14 59
-30 25 -35 -11 -2 -28 6 -38 17 -9 12 -25 21 -35 21 -14 0 -18 -8 -18 -40 l0
-40 68 0 c78 1 102 14 102 57 0 36 -15 51 -70 67 -41 12 -54 28 -27 34 8 2 22
-4 30 -13 9 -8 25 -15 36 -15 17 0 21 6 21 35 0 30 -3 35 -22 35 -13 0 -39 3
-58 5 -19 3 -43 0 -53 -6z"/>
<path d="M7670 445 c0 -16 6 -25 15 -25 11 0 15 -12 15 -50 0 -38 -4 -50 -15
-50 -9 0 -15 -9 -15 -25 0 -24 3 -25 55 -25 52 0 55 1 55 25 0 16 -6 25 -15
25 -12 0 -15 15 -15 75 l0 75 -40 0 c-36 0 -40 -2 -40 -25z"/>
<path d="M10140 445 c0 -14 5 -25 10 -25 6 0 10 -22 10 -50 0 -27 -4 -50 -10
-50 -5 0 -10 -11 -10 -25 0 -24 3 -25 55 -25 52 0 55 1 55 25 0 16 -6 25 -15
25 -12 0 -15 15 -15 75 l0 75 -40 0 c-36 0 -40 -2 -40 -25z"/>
<path d="M612 84 c-12 -30 -22 -63 -22 -72 1 -15 2 -15 14 1 17 22 62 22 75 0
5 -10 12 -15 15 -12 8 8 -39 132 -51 136 -6 2 -20 -22 -31 -53z m44 -31 c-2
-3 -11 -3 -19 -1 -11 2 -12 9 -5 28 l10 25 9 -24 c5 -13 7 -26 5 -28z"/>
<path d="M712 73 c3 -62 5 -68 26 -71 39 -6 72 23 72 64 0 56 -15 74 -61 74
l-40 0 3 -67z m76 0 c3 -34 0 -42 -17 -48 -32 -10 -41 2 -41 51 0 44 1 45 28
42 24 -3 27 -8 30 -45z"/>
<path d="M841 75 c-13 -36 -21 -69 -17 -72 3 -3 8 2 12 11 8 22 60 21 73 -1 5
-10 12 -15 15 -12 9 8 -37 132 -50 136 -5 2 -21 -26 -33 -62z m48 -12 c1 -7
-6 -13 -14 -13 -16 0 -19 17 -8 46 6 16 7 16 14 -2 4 -10 8 -25 8 -31z"/>
<path d="M950 70 c0 -45 4 -69 10 -65 6 3 10 17 10 30 0 18 6 24 26 27 63 7
55 71 -10 76 l-36 3 0 -71z m68 28 c3 -13 -3 -18 -22 -18 -20 0 -26 5 -26 21
0 15 5 20 22 17 13 -2 24 -11 26 -20z"/>
<path d="M1050 130 c0 -5 9 -10 20 -10 18 0 20 -7 20 -60 0 -33 4 -60 10 -60
6 0 10 27 10 60 0 53 2 60 20 60 11 0 20 5 20 10 0 6 -22 10 -50 10 -27 0 -50
-4 -50 -10z"/>
<path d="M1160 70 c0 -40 4 -70 10 -70 6 0 10 30 10 70 0 40 -4 70 -10 70 -6
0 -10 -30 -10 -70z"/>
<path d="M1200 132 c0 -20 43 -132 50 -132 7 0 50 112 50 132 0 4 -4 8 -10 8
-5 0 -15 -20 -21 -45 -6 -25 -15 -45 -19 -45 -4 0 -13 20 -19 45 -6 25 -16 45
-21 45 -6 0 -10 -4 -10 -8z"/>
<path d="M1320 70 l0 -70 39 0 c22 0 43 4 46 10 4 6 -8 10 -29 10 -29 0 -36 4
-36 20 0 15 7 20 24 20 14 0 28 5 31 10 4 6 -7 10 -24 10 -24 0 -31 4 -31 20
0 16 7 20 35 20 19 0 35 5 35 10 0 6 -20 10 -45 10 l-45 0 0 -70z"/>
<path d="M1482 128 c-14 -14 -16 -87 -2 -108 5 -8 25 -15 48 -15 l38 0 -4 55
c-2 30 -9 61 -14 68 -13 15 -50 16 -66 0z m58 -43 c0 -19 -5 -35 -11 -35 -6 0
-8 -7 -5 -16 4 -11 1 -14 -12 -12 -11 2 -18 14 -20 37 -4 44 3 61 28 61 16 0
20 -6 20 -35z"/>
<path d="M1590 86 c0 -75 30 -105 75 -72 21 15 36 126 16 126 -7 0 -11 -19
-11 -49 0 -51 -18 -78 -45 -67 -11 4 -15 21 -15 61 0 30 -4 55 -10 55 -5 0
-10 -24 -10 -54z"/>
<path d="M1721 85 c-12 -31 -21 -63 -21 -73 1 -16 2 -16 14 1 17 22 55 22 72
0 7 -10 15 -15 18 -12 8 7 -44 139 -54 139 -5 0 -18 -25 -29 -55z m39 6 c0 -5
3 -16 6 -25 4 -12 0 -16 -16 -16 -16 0 -20 4 -16 16 3 9 6 20 6 25 0 5 5 9 10
9 6 0 10 -4 10 -9z"/>
<path d="M1820 76 c0 -79 18 -98 22 -24 l3 52 32 -53 c18 -29 37 -49 43 -46
13 8 13 135 0 135 -12 0 -24 -45 -16 -59 4 -5 2 -12 -3 -15 -5 -3 -20 12 -35
34 -14 22 -31 40 -36 40 -6 0 -10 -29 -10 -64z"/>
<path d="M1940 130 c0 -5 9 -10 20 -10 18 0 20 -7 20 -60 0 -33 4 -60 10 -60
6 0 10 27 10 60 0 53 2 60 20 60 17 0 20 -7 20 -40 0 -41 26 -80 53 -80 28 0
47 36 47 88 0 29 -4 52 -10 52 -5 0 -10 -25 -10 -55 0 -40 -4 -57 -15 -61 -27
-11 -45 16 -45 67 l0 49 -60 0 c-33 0 -60 -4 -60 -10z"/>
<path d="M2160 76 c0 -76 19 -102 21 -29 l1 48 15 -38 c9 -20 19 -37 23 -37 3
0 14 15 23 33 l16 32 0 -42 c1 -24 6 -43 11 -43 6 0 10 30 10 70 0 79 -12 90
-36 30 -9 -22 -19 -40 -23 -40 -3 0 -14 18 -23 40 -24 59 -38 50 -38 -24z"/>
<path d="M2362 128 c-18 -18 -15 -94 4 -112 19 -20 35 -20 59 -2 23 17 27 85
6 110 -16 19 -52 21 -69 4z m56 -55 c-3 -40 -6 -48 -23 -48 -15 0 -21 8 -23
33 -5 45 3 62 28 62 19 0 21 -5 18 -47z"/>
<path d="M2470 70 c0 -45 4 -69 10 -65 6 3 10 17 10 30 0 18 6 24 26 27 63 7
55 71 -10 76 l-36 3 0 -71z m70 30 c0 -15 -7 -20 -25 -20 -18 0 -25 5 -25 20
0 15 7 20 25 20 18 0 25 -5 25 -20z"/>
<path d="M2570 130 c0 -5 9 -10 20 -10 18 0 20 -7 20 -60 0 -33 4 -60 10 -60
6 0 10 27 10 60 0 53 2 60 20 60 11 0 20 5 20 10 0 6 -22 10 -50 10 -27 0 -50
-4 -50 -10z"/>
<path d="M2680 70 c0 -40 4 -70 10 -70 6 0 10 30 10 70 0 40 -4 70 -10 70 -6
0 -10 -30 -10 -70z"/>
<path d="M2742 127 c-51 -61 8 -163 62 -107 21 23 19 24 -28 4 -20 -8 -39 31
-31 67 7 29 37 41 50 19 12 -20 26 -10 15 10 -12 22 -52 27 -68 7z"/>
<path d="M2847 133 c-4 -3 -7 -17 -7 -30 0 -18 9 -28 36 -39 45 -19 39 -40
-10 -37 -41 3 -49 -12 -10 -21 51 -13 84 16 64 55 -6 10 -19 19 -29 19 -21 0
-44 23 -34 33 3 4 19 7 35 7 17 0 27 4 23 10 -7 11 -58 14 -68 3z"/>
</g>
</svg>
