<?xml version="1.0" standalone="no"?>
<!DOCTYPE svg PUBLIC "-//W3C//DTD SVG 20010904//EN"
 "http://www.w3.org/TR/2001/REC-SVG-20010904/DTD/svg10.dtd">
<svg version="1.0" xmlns="http://www.w3.org/2000/svg"
 width="226.000000pt" height="301.000000pt" viewBox="0 0 226.000000 301.000000"
 preserveAspectRatio="xMidYMid meet">
<metadata>
Created by potrace 1.15, written by Peter Selinger 2001-2017
</metadata>
<g transform="translate(0.000000,301.000000) scale(0.100000,-0.100000)"
fill="#000000" stroke="none">
<path d="M1098 2023 l-3 -478 -297 -3 -298 -2 0 220 0 220 -35 0 -35 0 0 -220
0 -220 -165 0 -165 0 0 -30 0 -30 165 0 165 0 0 -240 0 -240 35 0 35 0 0 240
0 240 105 0 105 0 0 -240 0 -240 35 0 35 0 0 240 0 240 160 0 160 0 0 -485 0
-485 30 0 30 0 0 485 0 485 190 0 190 0 0 -165 0 -165 -106 0 -105 0 3 -33 3
-32 378 -3 377 -2 0 35 0 35 -245 0 -245 0 0 165 0 165 245 0 245 0 0 30 0 30
-110 0 -110 0 0 115 0 115 -35 0 -35 0 0 -115 0 -115 -100 0 -100 0 0 220 0
220 -30 0 -30 0 -2 -217 -3 -218 -185 0 -185 0 -3 478 -2 477 -30 0 -30 0 -2
-477z"/>
</g>
</svg>
