<?xml version="1.0" encoding="UTF-8" standalone="no"?>
<!-- Generator: Adobe Illustrator 23.0.1, SVG Export Plug-In . SVG Version: 6.00 Build 0)  -->

<svg
   version="1.1"
   id="Layer_1"
   x="0px"
   y="0px"
   viewBox="0 0 300 300"
   style="enable-background:new 0 0 300 300;"
   xml:space="preserve"
   sodipodi:docname="mind_the_gap.svg"
   inkscape:version="1.4.4 (dcaf3e7d9e, 2026-05-05)"
   xmlns:inkscape="http://www.inkscape.org/namespaces/inkscape"
   xmlns:sodipodi="http://sodipodi.sourceforge.net/DTD/sodipodi-0.dtd"
   xmlns="http://www.w3.org/2000/svg"
   xmlns:svg="http://www.w3.org/2000/svg"><defs
   id="defs11">
	
	

	
	
	
	
	
	
	
	
	
	
</defs><sodipodi:namedview
   id="namedview11"
   pagecolor="#ffffff"
   bordercolor="#000000"
   borderopacity="0.25"
   inkscape:showpageshadow="2"
   inkscape:pageopacity="0.0"
   inkscape:pagecheckerboard="0"
   inkscape:deskcolor="#d1d1d1"
   inkscape:zoom="2.6766667"
   inkscape:cx="150"
   inkscape:cy="150"
   inkscape:window-width="1853"
   inkscape:window-height="1011"
   inkscape:window-x="0"
   inkscape:window-y="0"
   inkscape:window-maximized="1"
   inkscape:current-layer="Layer_1" />
<style
   type="text/css"
   id="style1">
	.st0{fill:#DC2727;}
	.st1{fill:#273995;}
	.st2{fill:#FFFFFF;}
</style>
<path
   id="path1"
   class="st0"
   d="M 150.80078 48.599609 C 101.43553 48.599609 60.383799 83.879101 51.349609 130.59961 L 25.900391 130.59961 L 25.900391 169.5 L 51.373047 169.5 C 60.464928 216.17082 101.57037 251.40039 150.90039 251.40039 C 200.23041 251.40039 241.25668 216.17082 250.33008 169.5 L 275.40039 169.5 L 275.40039 130.59961 L 250.3457 130.59961 C 241.2931 83.879101 200.16603 48.599609 150.80078 48.599609 z M 150.90039 84.599609 C 180.3279 84.599609 205.12883 103.96193 213.37891 130.59961 L 88.419922 130.59961 C 96.670002 103.96193 121.47288 84.599609 150.90039 84.599609 z M 208.5 139.69922 C 210 139.69922 211.39922 139.79961 212.69922 140.09961 C 213.99922 140.29961 215.19922 140.80039 216.19922 141.40039 L 216.19922 145.30078 L 216 145.40039 C 214.9 144.60039 213.70039 144.10078 212.40039 143.80078 C 211.10039 143.50078 209.80039 143.40039 208.40039 143.40039 C 207.30039 143.40039 206.30078 143.6 205.30078 144 C 204.30078 144.4 203.60039 144.9 202.90039 145.5 C 202.20039 146.1 201.70078 146.90078 201.30078 147.80078 C 200.90078 148.70078 200.69922 149.59961 200.69922 150.59961 C 200.69922 151.59961 200.90078 152.50039 201.30078 153.40039 C 201.70078 154.30039 202.20039 154.99922 202.90039 155.69922 C 203.60039 156.29922 204.40039 156.89922 205.40039 157.19922 C 206.40039 157.49922 207.39961 157.69922 208.59961 157.69922 C 209.29961 157.69922 209.99922 157.7 210.69922 157.5 C 211.39922 157.4 212.09922 157.20039 212.69922 156.90039 L 212.69922 152.40039 L 209 152.40039 L 208.80078 152.19922 L 208.80078 149.09961 L 209 148.90039 L 216.30078 148.90039 L 216.5 149.09961 L 216.5 159.19922 C 215.3 159.89922 214.10078 160.50078 212.80078 160.80078 C 211.50078 161.20078 210.19922 161.30078 208.69922 161.30078 C 206.99922 161.30078 205.5 161 204 160.5 C 202.6 159.9 201.29922 159.19922 200.19922 158.19922 C 199.09922 157.19922 198.29922 156.10078 197.69922 154.80078 C 197.09922 153.50078 196.80078 152.1 196.80078 150.5 C 196.80078 149 197.09922 147.60078 197.69922 146.30078 C 198.29922 145.00078 199.09922 143.80039 200.19922 142.90039 C 201.29922 142.00039 202.50039 141.19961 203.90039 140.59961 C 205.30039 139.99961 206.9 139.69922 208.5 139.69922 z M 49.300781 140.09961 L 49.599609 140.30078 L 56.699219 148.69922 L 63.800781 140.30078 L 64.099609 140.09961 L 67.300781 140.09961 L 67.5 140.30078 L 67.5 160.69922 L 67.300781 160.90039 L 64 160.90039 L 63.800781 160.69922 L 63.800781 145.40039 L 56.699219 153.69922 L 56.400391 153.69922 L 49.300781 145.5 L 49.300781 160.80078 L 49.099609 161 L 45.800781 161 L 45.599609 160.80078 L 45.599609 140.40039 L 45.800781 140.19922 L 49.300781 140.09961 z M 71.800781 140.09961 L 75.099609 140.09961 L 75.300781 140.30078 L 75.300781 160.69922 L 75.099609 160.90039 L 71.800781 160.90039 L 71.599609 160.69922 L 71.599609 140.30078 L 71.800781 140.09961 z M 79.5 140.09961 L 82.900391 140.09961 L 83.199219 140.30078 L 95.099609 155.09961 L 95.099609 140.30078 L 95.300781 140.09961 L 98.599609 140.09961 L 98.800781 140.30078 L 98.800781 160.69922 L 98.599609 160.90039 L 95.199219 160.90039 L 94.900391 160.69922 L 83 145.90039 L 83 160.69922 L 82.800781 160.90039 L 79.5 160.90039 L 79.300781 160.69922 L 79.300781 140.30078 L 79.5 140.09961 z M 103 140.09961 L 110.19922 140.09961 C 111.89922 140.09961 113.40078 140.40039 114.80078 140.90039 C 116.20078 141.40039 117.40039 142.19961 118.40039 143.09961 C 119.40039 143.99961 120.20078 145.10039 120.80078 146.40039 C 121.40078 147.70039 121.69922 149 121.69922 150.5 C 121.69922 151.9 121.40078 153.29961 120.80078 154.59961 C 120.20078 155.89961 119.50039 157.00039 118.40039 157.90039 C 117.40039 158.80039 116.20078 159.59961 114.80078 160.09961 C 113.40078 160.59961 111.89922 160.90039 110.19922 160.90039 L 103 160.90039 L 102.80078 160.69922 L 102.80078 140.30078 L 103 140.09961 z M 130.5 140.09961 L 147.59961 140.09961 L 147.80078 140.30078 L 147.80078 143.5 L 147.59961 143.69922 L 140.90039 143.69922 L 140.90039 160.80078 L 140.69922 161 L 137.40039 161 L 137.19922 160.80078 L 137.19922 143.69922 L 130.5 143.69922 L 130.30078 143.5 L 130.30078 140.30078 L 130.5 140.09961 z M 150.80078 140.09961 L 154 140.09961 L 154.19922 140.30078 L 154.19922 148 L 165.09961 148 L 165.09961 140.30078 L 165.30078 140.09961 L 168.59961 140.09961 L 168.80078 140.30078 L 168.80078 160.69922 L 168.59961 160.90039 L 165.30078 160.90039 L 165.09961 160.69922 L 165.09961 151.5 L 154.19922 151.5 L 154.19922 160.69922 L 154 160.90039 L 150.80078 160.90039 L 150.59961 160.69922 L 150.59961 140.30078 L 150.80078 140.09961 z M 186.59961 140.09961 L 186.80078 140.30078 L 186.80078 143.5 L 186.59961 143.69922 L 176.40039 143.69922 L 176.40039 148.09961 L 183.90039 148.09961 L 184.09961 148.30078 L 184.09961 151.5 L 183.90039 151.69922 L 176.40039 151.69922 L 176.40039 157.69922 L 187.19922 157.69922 L 187.40039 157.90039 L 187.40039 161.09961 L 187.19922 161.30078 L 173 161.30078 L 172.80078 161.09961 L 172.80078 140.69922 L 173 140.5 L 186.59961 140.09961 z M 227.30078 140.09961 L 230.90039 140.09961 L 231.09961 140.30078 L 239.5 160.69922 L 239.30078 160.90039 L 235.5 160.90039 L 235.30078 160.69922 L 233.5 156.19922 L 224.69922 156.19922 L 222.90039 160.69922 L 222.69922 160.90039 L 218.90039 160.90039 L 218.69922 160.69922 L 227.09961 140.30078 L 227.30078 140.09961 z M 242.40039 140.09961 L 249.19922 140.09961 C 250.29922 140.09961 251.30078 140.29961 252.30078 140.59961 C 253.20078 140.99961 253.99922 141.4 254.69922 142 C 255.29922 142.6 255.79922 143.29961 256.19922 144.09961 C 256.59922 144.89961 256.69922 145.69961 256.69922 146.59961 C 256.69922 147.49961 256.49922 148.29961 256.19922 149.09961 C 255.79922 149.89961 255.29922 150.59922 254.69922 151.19922 C 254.09922 151.79922 253.30078 152.29961 252.30078 152.59961 C 251.40078 152.99961 250.29922 153.09961 249.19922 153.09961 L 246 153.09961 L 246 160.69922 L 245.80078 160.90039 L 242.5 160.90039 L 242.30078 160.69922 L 242.30078 140.30078 L 242.40039 140.09961 z M 106.40039 143.59961 L 106.40039 157.40039 L 110.19922 157.40039 C 111.29922 157.40039 112.29922 157.20039 113.19922 156.90039 C 114.09922 156.60039 114.89961 156.1 115.59961 155.5 C 116.19961 154.9 116.79961 154.20078 117.09961 153.30078 C 117.49961 152.40078 117.59961 151.6 117.59961 150.5 C 117.59961 149.5 117.39961 148.59922 117.09961 147.69922 C 116.69961 146.79922 116.19961 146.1 115.59961 145.5 C 114.99961 144.9 114.19922 144.39961 113.19922 144.09961 C 112.29922 143.69961 111.29922 143.59961 110.19922 143.59961 L 106.40039 143.59961 z M 246 143.69922 L 246 149.69922 L 249 149.69922 C 250.1 149.69922 250.99961 149.40039 251.59961 148.90039 C 252.19961 148.40039 252.59961 147.59922 252.59961 146.69922 C 252.59961 145.79922 252.29961 145 251.59961 144.5 C 250.99961 144 250.1 143.69922 249 143.69922 L 246 143.69922 z M 229.30078 144.80078 L 226.19922 152.80078 L 232.40039 152.80078 L 229.30078 144.80078 z M 88.460938 169.5 L 213.33984 169.5 C 205.03679 196.08612 180.20987 215.40039 150.90039 215.40039 C 121.59091 215.40039 96.763987 196.08612 88.460938 169.5 z "
   style="fill:#000000" />

</svg>
